<svg width="165" height="35" viewBox="0 0 165 35" fill="none" xmlns="http://www.w3.org/2000/svg">
<path d="M28.6138 15.4024C28.3226 11.8192 27.4125 8.40083 24.7315 5.51599C22.1962 2.79069 18.4206 1.14295 14.7177 1.05664H13.8987C10.7575 1.15341 7.65271 2.28852 5.16941 4.41227C1.98404 7.14019 0.109213 11.1941 0.0130015 15.3893C0.00520062 15.507 0 15.6273 0 15.745V33.9878H8.4458V15.4521C8.4458 9.54117 17.0268 7.28927 19.5751 12.8236C20.2486 14.2882 20.2616 15.9621 20.2616 17.5785C20.2616 23.0474 20.2668 28.5189 20.2694 33.9878H28.7152V23.1938C28.7152 20.5993 28.8218 17.9577 28.6138 15.3998V15.4024ZM26.1851 20.7118C26.2059 25.5608 26.2007 31.4404 26.1799 31.4404H22.8021C22.8021 28.1527 22.8021 24.8625 22.8229 21.5749C22.8385 18.5514 23.3196 15.1199 22.152 12.2508C20.3552 7.83851 15.0376 5.77492 10.7341 7.84636C7.10664 9.59087 5.9287 13.1923 5.9105 16.9455C5.8871 21.7763 5.9105 26.6096 5.9105 31.443H2.5327V15.7476C2.5327 15.6875 2.5327 15.6299 2.5379 15.5698L2.5431 15.4809C2.81353 9.89949 6.40716 5.10536 11.9016 3.79241C18.665 2.17605 25.4414 7.73912 26.1071 14.4739C26.1487 14.8872 26.1721 17.5863 26.1877 20.7144L26.1851 20.7118Z" fill="#0A40C6"/>
<path d="M44.0935 5.98108C40.9809 2.77977 36.8178 1.01172 32.3739 1.01172L23.0752 1.03264C23.0752 1.03264 23.0882 1.04049 23.0934 1.04572C24.2219 1.75451 25.2595 2.60453 26.193 3.55917H32.3765C36.1313 3.55917 39.6522 5.05521 42.2837 7.76482C44.8372 10.3933 46.2361 13.8379 46.2361 17.4969C46.2361 17.6042 46.2361 17.714 46.2309 17.8186C46.0619 25.3328 39.7094 31.4399 32.0749 31.4399H31.1258V33.9874H32.0749C36.576 33.9874 40.6975 32.1827 43.7217 29.2638C46.7458 26.345 48.6622 22.3198 48.7637 17.8762C48.8651 13.409 47.2061 9.18239 44.0935 5.97847V5.98108ZM41.1655 16.8797C41.3294 19.2964 40.5025 21.6241 38.8253 23.4288C37.0987 25.2936 34.6492 26.3633 32.1165 26.3633H31.1232V28.9108H32.1165C35.3513 28.9108 38.4716 27.5481 40.6793 25.168C42.8375 22.8351 43.9089 19.8299 43.6904 16.7018C43.2848 10.7464 38.3156 6.08308 32.3739 6.08308H28.2238C28.7595 6.89126 29.2249 7.7439 29.6176 8.63053H32.3765C36.9869 8.63053 40.8509 12.2529 41.1681 16.8744L41.1655 16.8797Z" fill="#0A40C6"/>
<path d="M68.3596 31.5891L67.3013 28.5944H63.1278L62.0851 31.5891H60.4131L64.4488 20.7402H66.0896L70.0784 31.5891H68.3596ZM63.6037 27.2213H66.8254L65.2003 22.6207L63.6037 27.2213Z" fill="#0A40C6"/>
<path d="M79.759 27.577C79.759 30.2945 77.9648 31.7748 75.8299 31.7748C74.4959 31.7748 73.513 31.1733 72.8213 30.0146V31.5891H71.3184V20.7402H72.8525V25.0139C73.5572 23.918 74.5713 23.2851 75.8299 23.2851C77.9622 23.2851 79.759 24.721 79.759 27.5744V27.577ZM78.1494 27.5456C78.1494 25.5867 77.0754 24.6451 75.6635 24.6451C74.2515 24.6451 73.162 25.8639 72.8239 27.5012V27.577C73.162 29.2274 74.1891 30.4174 75.6635 30.4174C77.1379 30.4174 78.1494 29.3686 78.1494 27.5456Z" fill="#0A40C6"/>
<path d="M93.5102 23.4863L90.3483 31.589L88.8609 31.5733L86.9575 25.4767L84.8252 31.589L83.3066 31.5733L80.4541 23.4863H82.1885L84.1231 29.6745L86.2242 23.4863H87.7896L89.7086 29.6902L91.8409 23.4863H93.5129H93.5102Z" fill="#0A40C6"/>
<path d="M100.996 23.4865H102.53V31.5892H100.996V29.999C100.305 31.1577 99.3398 31.7592 98.0189 31.7592C95.871 31.7592 94.0742 30.2763 94.0742 27.5457C94.0742 24.8152 95.8398 23.2852 98.0189 23.2852C99.3242 23.2852 100.305 23.871 100.996 24.9198V23.4839V23.4865ZM100.996 27.5457V27.483C100.674 25.8169 99.5219 24.6426 98.1567 24.6426C96.7915 24.6426 95.6864 25.5684 95.6864 27.5274C95.6864 29.3478 96.7447 30.3992 98.1567 30.3992C99.6441 30.3992 100.643 29.1961 100.996 27.5431V27.5457Z" fill="#0A40C6"/>
<path d="M113.287 27.577C113.287 30.2945 111.493 31.7748 109.358 31.7748C108.024 31.7748 107.041 31.1733 106.35 30.0146V31.5891H104.847V20.7402H106.381V25.0139C107.086 23.918 108.1 23.2851 109.358 23.2851C111.49 23.2851 113.287 24.721 113.287 27.5744V27.577ZM111.678 27.5456C111.678 25.5867 110.604 24.6451 109.192 24.6451C107.78 24.6451 106.69 25.8639 106.352 27.5012V27.577C106.69 29.2274 107.717 30.4174 109.192 30.4174C110.666 30.4174 111.678 29.3686 111.678 27.5456Z" fill="#0A40C6"/>
<path d="M126.238 26.1725C126.238 29.536 123.905 31.5891 120.759 31.5891H117.675V20.7402H120.759C123.921 20.7402 126.238 22.8247 126.238 26.1725ZM120.774 30.1846C122.985 30.1846 124.594 28.7488 124.594 26.2327C124.594 23.7166 122.953 22.1421 120.79 22.1421H119.256V30.182H120.774V30.1846Z" fill="#0A40C6"/>
<path d="M128.861 20.0156C129.412 20.0156 129.888 20.4315 129.888 21.02C129.888 21.6084 129.428 22.0374 128.861 22.0374C128.323 22.0374 127.85 21.6058 127.85 21.02C127.85 20.4341 128.31 20.0156 128.861 20.0156ZM128.094 31.589V23.4863H129.628V31.589H128.094Z" fill="#0A40C6"/>
<path d="M138.36 23.4865H139.894V31.5265C139.894 33.6267 138.037 34.9998 135.645 34.9998C134.34 34.9998 132.852 34.6127 131.963 33.9824L132.223 32.5779C133.206 33.2422 134.618 33.5953 135.661 33.5953C137.12 33.5953 138.362 32.8551 138.362 31.3878V29.9049C137.671 31.0007 136.69 31.5265 135.37 31.5265C133.237 31.5265 131.44 30.169 131.44 27.4516C131.44 24.7341 133.206 23.2852 135.37 23.2852C136.675 23.2852 137.671 23.871 138.362 24.9355V23.4839L138.36 23.4865ZM138.36 27.517V27.4542C138.022 25.8195 136.901 24.6452 135.505 24.6452C134.108 24.6452 133.034 25.4795 133.034 27.4228C133.034 29.2118 134.108 30.169 135.52 30.169C136.932 30.169 138.006 29.149 138.36 27.5143V27.517Z" fill="#0A40C6"/>
<path d="M142.978 20.0156C143.53 20.0156 144.005 20.4315 144.005 21.02C144.005 21.6084 143.545 22.0374 142.978 22.0374C142.44 22.0374 141.967 21.6058 141.967 21.02C141.967 20.4341 142.427 20.0156 142.978 20.0156ZM142.211 31.589V23.4863H143.745V31.589H142.211Z" fill="#0A40C6"/>
<path d="M151.494 31.2199C150.818 31.5599 150.129 31.7613 149.208 31.7613C147.69 31.7613 146.569 30.8956 146.569 28.8739V24.7231H145.142V23.4886H146.569V21.1426H148.103V23.4886H151.096V24.7231H148.103V28.5495C148.103 29.9383 148.717 30.4013 149.547 30.4013C150.098 30.4013 150.667 30.2784 151.187 30.0011L151.494 31.2199Z" fill="#0A40C6"/>
<path d="M158.983 23.4865H160.517V31.5892H158.983V29.999C158.291 31.1577 157.326 31.7592 156.005 31.7592C153.857 31.7592 152.061 30.2763 152.061 27.5457C152.061 24.8152 153.826 23.2852 156.005 23.2852C157.311 23.2852 158.291 23.871 158.983 24.9198V23.4839V23.4865ZM158.983 27.5457V27.483C158.66 25.8169 157.508 24.6426 156.143 24.6426C154.778 24.6426 153.673 25.5684 153.673 27.5274C153.673 29.3478 154.731 30.3992 156.143 30.3992C157.63 30.3992 158.629 29.1961 158.983 27.5431V27.5457Z" fill="#0A40C6"/>
<path d="M162.834 31.5891V20.7402H164.368V31.5891H162.834Z" fill="#0A40C6"/>
<path d="M64.8051 2.40625C64.3579 2.40625 64.038 2.76195 64.038 3.17781C64.038 3.59367 64.3579 3.94937 64.8051 3.94937C65.2186 3.94937 65.5722 3.60936 65.5722 3.17781C65.5722 2.74626 65.2186 2.40625 64.8051 2.40625ZM62.7925 2.40625C62.379 2.40625 62.0254 2.76195 62.0254 3.17781C62.0254 3.59367 62.379 3.94937 62.7925 3.94937C63.2397 3.94937 63.5596 3.60936 63.5596 3.17781C63.5596 2.74626 63.2215 2.40625 62.7925 2.40625Z" fill="#0A40C6"/>
<path d="M77.7469 14.7539C77.2996 14.7539 76.9798 15.107 76.9798 15.5255C76.9798 15.9439 77.2996 16.297 77.7469 16.297C78.1603 16.297 78.5139 15.957 78.5139 15.5255C78.5139 15.0939 78.1603 14.7539 77.7469 14.7539ZM75.7368 14.7539C75.3234 14.7539 74.9697 15.107 74.9697 15.5255C74.9697 15.9439 75.3234 16.297 75.7368 16.297C76.1841 16.297 76.5039 15.957 76.5039 15.5255C76.5039 15.0939 76.1659 14.7539 75.7368 14.7539Z" fill="#0A40C6"/>
<path d="M96.3159 1.75977C95.8686 1.75977 95.5488 2.11547 95.5488 2.53132C95.5488 2.94718 95.8686 3.30288 96.3159 3.30288C96.7293 3.30288 97.083 2.96287 97.083 2.53132C97.083 2.09977 96.7293 1.75977 96.3159 1.75977ZM94.3032 1.75977C93.8898 1.75977 93.5361 2.11547 93.5361 2.53132C93.5361 2.94718 93.8898 3.30288 94.3032 3.30288C94.7505 3.30288 95.0703 2.96287 95.0703 2.53132C95.0703 2.09977 94.7323 1.75977 94.3032 1.75977Z" fill="#0A40C6"/>
<path d="M95.3015 4.6159C93.3981 4.6159 92.1239 6.12763 92.1239 8.04214C92.1239 9.58526 93.0315 10.7099 94.8725 10.7099C96.131 10.7099 96.8357 10.1554 97.2362 9.53818C97.1451 11.6855 95.9308 11.9601 94.381 11.9601H89.0244C88.0285 11.9601 87.5812 11.607 87.2614 10.3725C86.7101 8.35338 85.696 7.33335 84.206 7.33335C82.2584 7.33335 80.8776 8.9837 80.8776 10.9714C80.8776 11.1127 80.8776 11.2356 80.8906 11.3585C80.5838 11.7901 79.9701 11.9575 79.203 11.9575C77.9757 11.9575 77.3932 11.7273 77.3932 10.2627V8.08399H76.1034V10.294C76.1034 11.7404 75.3988 11.9575 74.2936 11.9575H68.5625C67.5042 11.9575 66.7813 11.7404 66.7813 10.3071V4.90621H65.5098V6.0047C61.8095 6.6978 60.4756 8.14937 60.4756 9.98281C60.4756 11.6227 61.6119 12.6715 63.2813 12.6715C64.5711 12.6715 65.2628 12.1118 65.6138 11.3716C65.8296 12.7787 66.7189 13.6287 68.4975 13.6287H74.2494C75.4664 13.6209 76.3167 13.035 76.6079 12.0987C76.9147 13.1475 77.8482 13.6287 79.138 13.6287C80.0767 13.6287 80.9036 13.2417 81.3171 12.5616C81.8085 13.2704 82.6666 13.6863 83.8498 13.6863C85.2617 13.6863 86.2134 12.9932 86.6113 12.2687C86.9935 13.1606 87.8516 13.6261 88.9438 13.6261H94.3446C97.0281 13.6261 98.4089 12.5721 98.4089 8.73262C98.4089 6.52779 97.3038 4.61328 95.2963 4.61328L95.3015 4.6159ZM95.0259 9.15371C93.9832 9.15371 93.3071 8.69077 93.3071 7.87214C93.3071 7.11889 93.9338 6.23486 95.1611 6.23486C96.3885 6.23486 97.0021 7.36212 97.1867 8.19645C96.8357 8.72216 96.131 9.15371 95.0259 9.15371ZM65.5124 10.1685C65.268 10.587 64.5919 10.9871 63.4555 10.9871C62.4258 10.9871 61.6587 10.6001 61.6587 9.78403C61.6587 8.92093 62.6104 8.01076 65.5124 7.48505V10.1659V10.1685ZM83.9772 12.0386C82.7316 12.0386 82.0581 11.5285 82.0581 10.8041C82.0581 9.77096 82.9032 8.9994 84.0084 8.9994C85.1135 8.9994 85.8182 9.83373 86.1406 11.1284C85.865 11.573 85.2071 12.0386 83.9798 12.0386H83.9772Z" fill="#0A40C6"/>
<path d="M115.373 2.68652V10.3289C115.373 12.6645 114.016 13.6243 112.245 13.6322H104.348H104.338H102.957C102.559 15.5598 101.072 17.0401 98.8145 17.0401C98.2476 17.0401 97.7275 16.9486 97.4961 16.8675L97.6365 15.3113C97.9876 15.3584 98.3256 15.3741 98.6792 15.3741C100.871 15.3741 101.81 13.9225 101.81 12.688C101.81 11.5895 101.516 10.2792 101.228 8.61314L102.499 8.27313C102.775 9.66194 103.006 10.9147 103.069 11.9609H112.289C113.363 11.9609 114.055 11.7308 114.055 10.4832V2.68652H115.376H115.373Z" fill="#0A40C6"/>
<path d="M117.675 13.627V2.68652H118.993V13.6296H117.675V13.627Z" fill="#0A40C6"/>
<path d="M125.574 13.6265C122.259 13.6265 120.956 12.3763 120.956 9.98316C120.956 9.08867 121.185 7.9928 121.617 7.01985L122.737 7.42001C122.415 8.27003 122.23 8.94744 122.23 9.65884C122.23 11.249 123.367 11.9578 125.637 11.9578H130.338C132.839 11.9578 133.929 11.2935 133.929 9.93608C133.929 8.90297 133.698 7.82279 133.453 6.81846L134.712 6.49414C134.943 7.40432 135.203 8.59173 135.203 9.76607C135.203 12.2037 133.929 13.6239 130.369 13.6239H125.577L125.574 13.6265ZM126.294 15.5881C126.294 15.1408 126.648 14.7537 127.14 14.7537C127.631 14.7537 127.969 15.1408 127.969 15.5881C127.969 16.0353 127.615 16.4381 127.14 16.4381C126.664 16.4381 126.294 16.051 126.294 15.5881Z" fill="#0A40C6"/>
<path d="M137.042 13.627V2.68652H138.363V13.6296H137.042V13.627Z" fill="#0A40C6"/>
<path d="M159.506 14.7539C159.014 14.7539 158.663 15.1384 158.663 15.5882C158.663 16.0381 159.014 16.4356 159.506 16.4356C159.997 16.4356 160.335 16.0512 160.335 15.5882C160.335 15.1253 159.984 14.7539 159.506 14.7539Z" fill="#0A40C6"/>
<path d="M160.535 7.19238L159.29 7.51931C159.505 8.47657 159.719 9.67968 159.719 10.514C159.719 11.5157 159.136 11.9604 157.937 11.9604H146.491V11.6387C146.491 9.22982 145.404 7.39639 143.454 7.39639C141.503 7.39639 140.248 9.01535 140.248 11.0057C140.248 12.4599 141.168 13.5689 143.103 13.5689H145.11C144.65 14.5575 143.514 15.4389 141.444 15.4389C140.536 15.4389 139.787 15.3291 139.371 15.2532L139.249 16.7649C139.618 16.8879 140.463 17.0422 141.397 17.0422C144.268 17.0422 145.693 15.5435 146.231 13.6342H157.896C159.758 13.6264 161.006 12.4861 161.006 10.3623C161.006 9.28213 160.761 8.0921 160.533 7.19761L160.535 7.19238ZM143.272 11.9577C142.104 11.9577 141.431 11.5733 141.431 10.8802C141.431 10.0301 142.063 9.02582 143.318 9.02582C144.806 9.02582 145.344 10.7259 145.357 11.9577H143.269H143.272Z" fill="#0A40C6"/>
<path d="M165.001 1.91451V2.809H162.161V1.95897H162.621C162.484 1.80466 162.421 1.58758 162.421 1.32603C162.421 0.66171 162.897 0 163.755 0C164.262 0 164.691 0.292931 164.86 0.617247L164.462 1.26588C164.309 1.15865 164.093 0.972949 163.771 0.972949C163.417 0.972949 163.082 1.17434 163.082 1.46727C163.082 1.71312 163.373 1.91451 163.896 1.91451H165.001ZM162.928 13.6265V3.70348H164.249V13.6265H162.928Z" fill="#0A40C6"/>
</svg>
